<svg width="147" height="32" viewBox="0 0 147 32" fill="none" xmlns="http://www.w3.org/2000/svg">
<path d="M15.6797 18.005L14.0697 16.045C15.493 15.9283 16.6364 15.5783 17.4997 14.995C18.363 14.4117 18.993 13.6883 19.3897 12.825C19.7864 11.9617 19.9847 11.0633 19.9847 10.13C19.9847 9.19667 19.7514 8.35667 19.2847 7.61C18.818 6.84 18.083 6.245 17.0797 5.825C16.0764 5.38167 14.758 5.16 13.1247 5.16C12.2147 5.16 11.258 5.28833 10.2547 5.545C9.27471 5.80166 8.35304 6.22167 7.48971 6.805C6.64971 7.38833 5.96137 8.15833 5.42471 9.115C4.88804 10.0483 4.61971 11.1917 4.61971 12.545C4.61971 13.1283 4.68971 13.665 4.82971 14.155C4.96971 14.645 5.20304 15.2167 5.52971 15.87C5.27304 16.08 4.98137 16.2433 4.65471 16.36C4.32804 16.4533 3.98971 16.5 3.63971 16.5C3.03304 16.5 2.48471 16.3367 1.99471 16.01C1.52804 15.6833 1.16637 15.2283 0.909707 14.645C0.65304 14.0383 0.524707 13.35 0.524707 12.58C0.524707 11.25 0.851374 10.025 1.50471 8.905C2.18137 7.76167 3.12637 6.75833 4.33971 5.895C5.55304 5.03167 6.95304 4.355 8.53971 3.865C10.1497 3.375 11.8997 3.13 13.7897 3.13C16.1697 3.13 18.118 3.43333 19.6347 4.04C21.1747 4.64667 22.3064 5.45167 23.0297 6.455C23.7764 7.45833 24.1497 8.57833 24.1497 9.815C24.1497 10.8883 23.9397 11.88 23.5197 12.79C23.0997 13.7 22.493 14.505 21.6997 15.205C20.9297 15.905 20.0314 16.5 19.0047 16.99C17.978 17.4567 16.8697 17.795 15.6797 18.005ZM7.38471 27.49C7.01137 27.49 6.62637 27.4317 6.22971 27.315C5.83304 27.1983 5.51804 27.0117 5.28471 26.755C5.54137 26.545 5.77471 26.265 5.98471 25.915C6.21804 25.565 6.40471 25.1567 6.54471 24.69C6.70804 24.2233 6.84804 23.7217 6.96471 23.185L9.48471 10.34C9.64804 9.54667 9.84637 8.88166 10.0797 8.345C10.3364 7.80833 10.6864 7.41167 11.1297 7.155C11.5964 6.89833 12.1914 6.77 12.9147 6.77C13.568 6.77 14.0814 6.89833 14.4547 7.155C14.8514 7.41167 15.0847 7.72667 15.1547 8.1C14.7814 8.28667 14.478 8.555 14.2447 8.905C14.0347 9.23167 13.883 9.605 13.7897 10.025C13.6964 10.4217 13.5914 10.8533 13.4747 11.32L10.7797 24.55C10.663 25.2033 10.4414 25.7517 10.1147 26.195C9.78804 26.615 9.39137 26.93 8.92471 27.14C8.48137 27.3733 7.96804 27.49 7.38471 27.49ZM22.6097 31.095C21.863 31.095 21.1864 30.9317 20.5797 30.605C19.9964 30.2783 19.413 29.5783 18.8297 28.505C18.5964 28.0617 18.3397 27.455 18.0597 26.685C17.7797 25.915 17.4764 25.0517 17.1497 24.095C16.8464 23.1383 16.5197 22.17 16.1697 21.19C15.8197 20.21 15.4697 19.2767 15.1197 18.39C14.7697 17.5033 14.4197 16.7217 14.0697 16.045L17.4647 17.445C17.978 17.795 18.4564 18.39 18.8997 19.23C19.343 20.0467 19.7747 20.98 20.1947 22.03C20.638 23.0567 21.1047 24.0717 21.5947 25.075C22.0847 26.0783 22.633 26.965 23.2397 27.735C23.8464 28.505 24.5464 29.0183 25.3397 29.275C25.153 29.835 24.8264 30.2783 24.3597 30.605C23.893 30.9317 23.3097 31.095 22.6097 31.095ZM31.3233 27.7C29.9933 27.7 28.8383 27.455 27.8583 26.965C26.9017 26.4517 26.1667 25.6817 25.6533 24.655C25.14 23.6283 24.8833 22.3333 24.8833 20.77C24.8833 19.3 25.0817 17.8417 25.4783 16.395C25.8983 14.925 26.5167 13.595 27.3333 12.405C28.15 11.215 29.1883 10.2583 30.4483 9.535C31.7317 8.81167 33.2367 8.45 34.9633 8.45C35.8733 8.45 36.69 8.57833 37.4133 8.835C38.1367 9.09167 38.7083 9.51167 39.1283 10.095C39.5483 10.6783 39.7583 11.4717 39.7583 12.475C39.7583 13.8283 39.35 14.9717 38.5333 15.905C37.74 16.815 36.6783 17.515 35.3483 18.005C34.0183 18.4717 32.5483 18.705 30.9383 18.705C30.635 18.705 30.2967 18.705 29.9233 18.705C29.5733 18.6817 29.2817 18.6583 29.0483 18.635C29.025 19.0083 29.0017 19.3817 28.9783 19.755C28.955 20.105 28.9433 20.4317 28.9433 20.735C28.9433 21.995 29.1767 22.9867 29.6433 23.71C30.11 24.41 30.9617 24.76 32.1983 24.76C33.2017 24.76 34.1 24.5267 34.8933 24.06C35.6867 23.57 36.305 22.8817 36.7483 21.995C37.075 22.0883 37.2967 22.275 37.4133 22.555C37.53 22.835 37.5883 23.1267 37.5883 23.43C37.5883 24.13 37.3433 24.8067 36.8533 25.46C36.3633 26.1133 35.6517 26.65 34.7183 27.07C33.785 27.49 32.6533 27.7 31.3233 27.7ZM29.2933 16.92C30.0867 16.92 30.8683 16.8383 31.6383 16.675C32.4317 16.5117 33.155 16.255 33.8083 15.905C34.4617 15.5317 34.975 15.065 35.3483 14.505C35.745 13.9217 35.9433 13.245 35.9433 12.475C35.9433 11.7983 35.78 11.2967 35.4533 10.97C35.15 10.62 34.7067 10.445 34.1233 10.445C33.47 10.445 32.8633 10.655 32.3033 11.075C31.7667 11.4717 31.3 11.9967 30.9033 12.65C30.5067 13.3033 30.1683 14.0033 29.8883 14.75C29.6317 15.4967 29.4333 16.22 29.2933 16.92ZM45.8844 27.7C44.6944 27.7 43.7261 27.42 42.9794 26.86C42.2561 26.2767 41.7194 25.495 41.3694 24.515C41.0428 23.5117 40.8794 22.3683 40.8794 21.085C40.8794 19.3583 41.1128 17.7367 41.5794 16.22C42.0694 14.68 42.7344 13.3267 43.5744 12.16C44.4378 10.9933 45.4644 10.0833 46.6544 9.43C47.8444 8.77667 49.1278 8.45 50.5044 8.45C51.2044 8.45 51.8344 8.52 52.3944 8.66C52.9778 8.77666 53.5961 8.96333 54.2494 9.22L57.5044 9.71C57.0844 11.95 56.6528 14.2133 56.2094 16.5C55.7894 18.7633 55.3344 21.05 54.8444 23.36C54.8211 23.57 54.7861 23.815 54.7394 24.095C54.6928 24.375 54.6694 24.62 54.6694 24.83C54.6694 25.18 54.7511 25.46 54.9144 25.67C55.1011 25.88 55.3811 25.9967 55.7544 26.02C55.6378 26.4167 55.4394 26.7433 55.1594 27C54.9028 27.2333 54.5994 27.4083 54.2494 27.525C53.9228 27.6417 53.5494 27.7 53.1294 27.7C52.4994 27.7 51.9628 27.525 51.5194 27.175C51.0761 26.8483 50.8194 26.3583 50.7494 25.705C50.1428 26.2883 49.4194 26.7667 48.5794 27.14C47.7628 27.5133 46.8644 27.7 45.8844 27.7ZM47.4244 25.6C48.3111 25.6 49.0228 25.3083 49.5594 24.725C50.1194 24.1417 50.5628 23.4183 50.8894 22.555C51.2161 21.6683 51.4611 20.8167 51.6244 20L53.1644 11.635C52.6978 11.2617 52.2078 10.9933 51.6944 10.83C51.2044 10.6433 50.7494 10.55 50.3294 10.55C49.6061 10.55 48.9528 10.76 48.3694 11.18C47.8094 11.6 47.3078 12.1717 46.8644 12.895C46.4444 13.6183 46.0828 14.4583 45.7794 15.415C45.4994 16.3717 45.2894 17.3983 45.1494 18.495C45.0094 19.5683 44.9394 20.6533 44.9394 21.75C44.9394 22.8233 45.1144 23.7333 45.4644 24.48C45.8144 25.2267 46.4678 25.6 47.4244 25.6ZM57.4344 10.06L53.5844 9.78C53.8178 8.49667 54.0161 7.20166 54.1794 5.895C54.3661 4.58833 54.4711 3.46833 54.4944 2.535C54.4944 2.255 54.4828 1.99833 54.4594 1.765C54.4594 1.53167 54.4361 1.31 54.3894 1.1C54.5994 0.959999 54.8678 0.843331 55.1944 0.749998C55.5211 0.656666 55.8711 0.61 56.2444 0.61C56.8511 0.61 57.4111 0.796666 57.9244 1.17C58.4378 1.52 58.6944 2.16167 58.6944 3.095C58.6944 3.35167 58.6244 3.85333 58.4844 4.6C58.3678 5.34667 58.2161 6.21 58.0294 7.19C57.8428 8.17 57.6444 9.12667 57.4344 10.06ZM64.7174 27.7C63.5274 27.7 62.5591 27.42 61.8124 26.86C61.0891 26.2767 60.5524 25.495 60.2024 24.515C59.8758 23.5117 59.7124 22.3683 59.7124 21.085C59.7124 19.3583 59.9458 17.7367 60.4124 16.22C60.8791 14.68 61.5441 13.3267 62.4074 12.16C63.2941 10.9933 64.3208 10.0833 65.4874 9.43C66.6541 8.77667 67.9374 8.45 69.3374 8.45C70.4808 8.45 71.6824 8.695 72.9424 9.185L76.4774 8.73L73.6774 23.36C73.6541 23.57 73.6191 23.815 73.5724 24.095C73.5258 24.375 73.5024 24.62 73.5024 24.83C73.5024 25.18 73.5841 25.46 73.7474 25.67C73.9341 25.88 74.2141 25.9967 74.5874 26.02C74.4708 26.4167 74.2724 26.7433 73.9924 27C73.7358 27.2333 73.4324 27.4083 73.0824 27.525C72.7558 27.6417 72.3824 27.7 71.9624 27.7C71.3324 27.7 70.7958 27.525 70.3524 27.175C69.9091 26.8483 69.6524 26.3583 69.5824 25.705C68.9758 26.2883 68.2524 26.7667 67.4124 27.14C66.5958 27.5133 65.6974 27.7 64.7174 27.7ZM66.2574 25.6C67.1441 25.6 67.8558 25.3083 68.3924 24.725C68.9524 24.1417 69.3958 23.4183 69.7224 22.555C70.0491 21.6683 70.2941 20.8167 70.4574 20L71.9974 11.635C71.5308 11.2617 71.0408 10.9933 70.5274 10.83C70.0374 10.6433 69.5824 10.55 69.1624 10.55C68.4391 10.55 67.7858 10.76 67.2024 11.18C66.6424 11.6 66.1408 12.1717 65.6974 12.895C65.2774 13.6183 64.9158 14.4583 64.6124 15.415C64.3324 16.3717 64.1224 17.3983 63.9824 18.495C63.8424 19.5683 63.7724 20.6533 63.7724 21.75C63.7724 22.8233 63.9474 23.7333 64.2974 24.48C64.6474 25.2267 65.3008 25.6 66.2574 25.6ZM84.2245 27.7C82.1945 27.7 80.6778 27.1283 79.6745 25.985C78.6711 24.8183 78.1695 23.08 78.1695 20.77C78.1695 19.2533 78.3795 17.7717 78.7995 16.325C79.2195 14.855 79.8378 13.5367 80.6545 12.37C81.4945 11.18 82.5211 10.235 83.7345 9.535C84.9711 8.81167 86.4178 8.45 88.0745 8.45C89.0311 8.45 89.8711 8.59 90.5945 8.87C91.3411 9.12667 91.9245 9.52333 92.3445 10.06C92.7645 10.5967 92.9745 11.285 92.9745 12.125C92.9745 13.175 92.6711 13.945 92.0645 14.435C91.4578 14.925 90.7811 15.17 90.0345 15.17C89.8245 15.17 89.5678 15.1467 89.2645 15.1C88.9845 15.03 88.7628 14.89 88.5995 14.68C88.7161 14.33 88.8211 13.9333 88.9145 13.49C89.0311 13.0233 89.0895 12.6267 89.0895 12.3C89.0895 11.7167 88.9495 11.2733 88.6695 10.97C88.4128 10.6667 88.0045 10.515 87.4445 10.515C86.7445 10.515 86.1145 10.7483 85.5545 11.215C84.9945 11.6817 84.5045 12.3 84.0845 13.07C83.6878 13.8167 83.3495 14.645 83.0695 15.555C82.7895 16.465 82.5795 17.3633 82.4395 18.25C82.2995 19.1367 82.2295 19.93 82.2295 20.63C82.2295 21.7733 82.4511 22.7533 82.8945 23.57C83.3611 24.3633 84.2011 24.76 85.4145 24.76C86.4878 24.76 87.3861 24.445 88.1095 23.815C88.8328 23.185 89.3461 22.38 89.6495 21.4C90.0928 21.54 90.4078 21.7733 90.5945 22.1C90.7811 22.4033 90.8745 22.7767 90.8745 23.22C90.8745 24.0367 90.5828 24.7833 89.9995 25.46C89.4395 26.1367 88.6578 26.6733 87.6545 27.07C86.6511 27.49 85.5078 27.7 84.2245 27.7ZM97.3938 27.735C96.7404 27.735 96.1688 27.525 95.6788 27.105C95.1888 26.685 94.9438 26.0783 94.9438 25.285C94.9438 24.8183 95.0138 24.165 95.1538 23.325C95.2938 22.4617 95.4571 21.5517 95.6438 20.595C95.8304 19.6383 96.0171 18.7283 96.2038 17.865C96.4138 16.9783 96.5654 16.2667 96.6588 15.73L97.6738 10.725H95.1888L95.3288 9.675C96.4488 9.255 97.5571 8.695 98.6538 7.995C99.7504 7.295 100.719 6.525 101.559 5.685H102.644L101.944 9.15H104.674L104.359 10.725H101.594L99.1788 22.625C99.1088 22.9983 99.0504 23.3367 99.0038 23.64C98.9571 23.92 98.9221 24.1883 98.8988 24.445C98.8754 25.075 98.9921 25.5183 99.2488 25.775C99.5054 26.0083 99.9721 26.055 100.649 25.915C100.439 26.3583 100.17 26.7083 99.8438 26.965C99.5404 27.2217 99.1788 27.4083 98.7588 27.525C98.3388 27.665 97.8838 27.735 97.3938 27.735ZM106.901 27.7C106.155 27.7 105.571 27.49 105.151 27.07C104.731 26.65 104.521 26.0667 104.521 25.32C104.521 25.04 104.545 24.7017 104.591 24.305C104.638 23.9083 104.696 23.5 104.766 23.08C104.836 22.6367 104.906 22.2283 104.976 21.855C105.07 21.4583 105.14 21.12 105.186 20.84L107.566 9.15L111.556 8.73L108.616 23.36C108.593 23.5467 108.558 23.7917 108.511 24.095C108.465 24.375 108.441 24.62 108.441 24.83C108.441 25.18 108.523 25.46 108.686 25.67C108.873 25.88 109.141 25.9967 109.491 26.02C109.351 26.6033 109.025 27.0233 108.511 27.28C108.021 27.56 107.485 27.7 106.901 27.7ZM110.436 6.07C109.69 6.07 109.071 5.895 108.581 5.545C108.091 5.17167 107.846 4.62333 107.846 3.9C107.846 3.13 108.103 2.57 108.616 2.22C109.13 1.84667 109.76 1.66 110.506 1.66C111.253 1.66 111.871 1.84667 112.361 2.22C112.851 2.57 113.096 3.10667 113.096 3.83C113.096 4.6 112.84 5.17167 112.326 5.545C111.813 5.895 111.183 6.07 110.436 6.07ZM116.697 27.42C116.557 27.42 116.417 27.42 116.277 27.42C116.16 27.42 116.032 27.4083 115.892 27.385C115.845 25.4717 115.787 23.6167 115.717 21.82C115.647 20.0233 115.554 18.3433 115.437 16.78C115.32 15.1933 115.169 13.8167 114.982 12.65C114.865 11.7167 114.714 11.005 114.527 10.515C114.34 10.025 114.014 9.65167 113.547 9.395C113.804 9.09167 114.13 8.85833 114.527 8.695C114.947 8.53167 115.425 8.45 115.962 8.45C117.129 8.45 117.922 8.8 118.342 9.5C118.785 10.1767 119.065 11.2267 119.182 12.65C119.229 13.0233 119.264 13.525 119.287 14.155C119.31 14.7617 119.334 15.5667 119.357 16.57C119.38 17.55 119.392 18.8333 119.392 20.42C119.392 20.98 119.392 21.5983 119.392 22.275C119.392 22.9517 119.38 23.6867 119.357 24.48C120.01 23.6167 120.652 22.66 121.282 21.61C121.912 20.5367 122.484 19.4167 122.997 18.25C123.51 17.0833 123.919 15.9167 124.222 14.75C124.525 13.5833 124.677 12.475 124.677 11.425C124.677 11.1217 124.654 10.795 124.607 10.445C124.584 10.095 124.525 9.745 124.432 9.395C124.735 9.115 125.12 8.89333 125.587 8.73C126.077 8.54333 126.579 8.45 127.092 8.45C127.605 8.45 128.002 8.54333 128.282 8.73C128.562 8.89333 128.749 9.15 128.842 9.5C128.959 9.82667 129.017 10.2467 129.017 10.76C129.017 11.7633 128.819 12.8833 128.422 14.12C128.049 15.3567 127.547 16.5817 126.917 17.795C126.287 19.0083 125.61 20.1283 124.887 21.155C123.37 23.255 121.982 24.83 120.722 25.88C119.462 26.9067 118.12 27.42 116.697 27.42ZM134.683 27.7C133.493 27.7 132.525 27.42 131.778 26.86C131.055 26.2767 130.518 25.495 130.168 24.515C129.842 23.5117 129.678 22.3683 129.678 21.085C129.678 19.3583 129.912 17.7367 130.378 16.22C130.845 14.68 131.51 13.3267 132.373 12.16C133.26 10.9933 134.287 10.0833 135.453 9.43C136.62 8.77667 137.903 8.45 139.303 8.45C140.447 8.45 141.648 8.695 142.908 9.185L146.443 8.73L143.643 23.36C143.62 23.57 143.585 23.815 143.538 24.095C143.492 24.375 143.468 24.62 143.468 24.83C143.468 25.18 143.55 25.46 143.713 25.67C143.9 25.88 144.18 25.9967 144.553 26.02C144.437 26.4167 144.238 26.7433 143.958 27C143.702 27.2333 143.398 27.4083 143.048 27.525C142.722 27.6417 142.348 27.7 141.928 27.7C141.298 27.7 140.762 27.525 140.318 27.175C139.875 26.8483 139.618 26.3583 139.548 25.705C138.942 26.2883 138.218 26.7667 137.378 27.14C136.562 27.5133 135.663 27.7 134.683 27.7ZM136.223 25.6C137.11 25.6 137.822 25.3083 138.358 24.725C138.918 24.1417 139.362 23.4183 139.688 22.555C140.015 21.6683 140.26 20.8167 140.423 20L141.963 11.635C141.497 11.2617 141.007 10.9933 140.493 10.83C140.003 10.6433 139.548 10.55 139.128 10.55C138.405 10.55 137.752 10.76 137.168 11.18C136.608 11.6 136.107 12.1717 135.663 12.895C135.243 13.6183 134.882 14.4583 134.578 15.415C134.298 16.3717 134.088 17.3983 133.948 18.495C133.808 19.5683 133.738 20.6533 133.738 21.75C133.738 22.8233 133.913 23.7333 134.263 24.48C134.613 25.2267 135.267 25.6 136.223 25.6Z" fill="white"/>
</svg>
