<?xml version="1.0" standalone="no"?>
<!DOCTYPE svg PUBLIC "-//W3C//DTD SVG 20010904//EN"
 "http://www.w3.org/TR/2001/REC-SVG-20010904/DTD/svg10.dtd">
<svg version="1.0" xmlns="http://www.w3.org/2000/svg"
 width="406.000000pt" height="69.000000pt" viewBox="0 0 406.000000 69.000000"
 preserveAspectRatio="xMidYMid meet">

<g transform="translate(0.000000,69.000000) scale(0.100000,-0.100000)"
fill="#000000" stroke="none">
<path d="M1641 627 c-6 -6 -59 -131 -118 -279 -79 -199 -104 -271 -96 -279 7
-7 18 -9 26 -6 8 3 57 112 109 243 l95 237 94 -239 c68 -170 100 -240 112
-242 9 -2 20 4 23 12 7 19 -204 553 -222 560 -6 2 -16 0 -23 -7z"/>
<path d="M3761 627 c-6 -6 -59 -131 -118 -279 -79 -199 -104 -271 -96 -279 7
-7 18 -9 26 -6 8 3 57 112 109 243 l95 237 94 -239 c68 -170 100 -240 112
-242 9 -2 20 4 23 12 7 19 -204 553 -222 560 -6 2 -16 0 -23 -7z"/>
<path d="M2124 619 c-66 -19 -127 -71 -161 -137 -29 -56 -33 -73 -33 -142 0
-69 4 -86 33 -142 62 -120 203 -177 339 -136 31 9 38 16 36 32 -2 16 -9 20
-28 18 -14 -1 -48 -5 -76 -8 -140 -16 -256 91 -255 236 0 76 24 132 77 179 52
46 116 66 181 57 98 -12 98 -12 101 10 3 18 -5 23 -42 33 -52 13 -128 13 -172
0z"/>
<path d="M68 609 c-16 -9 -18 -33 -18 -273 0 -219 2 -266 15 -276 31 -26 35
-1 35 256 l0 254 100 0 c112 0 159 -14 185 -53 53 -82 9 -186 -88 -206 -18 -4
-33 -14 -35 -23 -3 -15 129 -214 153 -230 5 -4 15 -6 20 -5 24 8 12 41 -46
123 -35 49 -58 89 -51 92 35 11 80 53 100 92 26 52 28 96 7 147 -38 89 -88
113 -245 112 -63 0 -123 -4 -132 -10z"/>
<path d="M525 607 c-3 -7 -4 -134 -3 -282 l3 -270 144 -3 c145 -3 176 4 164
34 -4 11 -32 14 -134 14 l-129 0 0 235 0 235 129 0 c130 0 146 4 133 38 -6 18
-301 17 -307 -1z"/>
<path d="M927 613 c-4 -3 -7 -129 -7 -279 0 -278 2 -289 38 -277 9 4 12 64 12
259 l0 254 83 0 c100 0 162 -19 207 -63 115 -111 85 -316 -55 -378 -22 -10
-71 -21 -108 -25 -73 -7 -86 -16 -66 -41 11 -12 27 -14 82 -10 157 13 255 110
265 263 6 94 -15 159 -72 218 -63 64 -129 86 -265 86 -59 0 -111 -3 -114 -7z"/>
<path d="M2373 605 c-3 -9 -1 -21 4 -26 5 -5 90 -8 204 -7 186 3 194 4 194 23
0 19 -8 20 -198 23 -173 2 -198 0 -204 -13z"/>
<path d="M2852 608 c-19 -19 -17 -518 2 -543 12 -16 16 -17 30 -6 14 12 16 47
16 271 0 142 -3 265 -6 274 -7 19 -25 21 -42 4z"/>
<path d="M2957 614 c-11 -11 -8 -552 2 -558 5 -4 16 -3 25 0 15 6 16 37 14
282 -3 241 -5 277 -18 280 -9 1 -19 0 -23 -4z"/>
<path d="M3054 607 c-3 -8 46 -140 109 -293 93 -229 117 -279 133 -279 16 0
39 49 131 270 62 149 111 279 110 290 -1 12 -9 20 -20 20 -15 0 -39 -49 -115
-237 -54 -130 -100 -239 -103 -242 -3 -4 -51 103 -105 236 -71 174 -104 244
-117 246 -9 2 -20 -3 -23 -11z"/>
<path d="M3174 605 c-4 -8 18 -75 47 -148 74 -180 78 -180 151 0 54 132 60
163 33 163 -19 0 -28 -16 -70 -118 l-38 -93 -43 103 c-41 100 -66 129 -80 93z"/>
<path d="M2180 520 c-77 -14 -130 -71 -138 -150 -9 -96 21 -160 91 -197 66
-33 192 -12 192 32 0 16 -6 19 -25 17 -105 -14 -129 -13 -155 4 -77 50 -73
189 6 230 30 15 47 15 149 2 16 -2 25 2 28 14 6 31 -81 59 -148 48z"/>
<path d="M167 513 c-4 -3 -7 -14 -7 -24 0 -15 10 -19 61 -21 46 -2 65 -8 73
-21 14 -22 -5 -37 -46 -37 -21 0 -28 -5 -28 -20 0 -26 41 -36 81 -20 65 27 67
104 2 138 -23 13 -125 16 -136 5z"/>
<path d="M633 513 c-20 -8 -17 -139 3 -147 32 -12 131 -6 144 9 20 24 2 35
-56 35 -53 0 -54 0 -54 30 l0 30 79 0 c58 0 80 4 84 14 10 27 -16 36 -102 35
-48 0 -92 -3 -98 -6z"/>
<path d="M1033 509 c-15 -15 -18 -216 -4 -238 5 -8 16 -11 25 -8 13 5 16 23
16 101 0 52 4 98 10 101 19 12 89 -16 114 -46 21 -25 26 -41 26 -86 0 -49 -4
-59 -34 -89 -30 -30 -40 -34 -89 -34 -55 0 -86 -17 -72 -40 9 -15 122 -12 153
4 61 32 93 87 93 161 0 66 -28 125 -74 154 -43 26 -146 39 -164 20z"/>
<path d="M2381 511 c-30 -19 -3 -40 56 -43 l58 -3 3 -200 c1 -110 7 -204 12
-209 6 -6 15 -4 25 4 13 10 15 46 15 224 0 152 -3 215 -12 224 -14 14 -136 16
-157 3z"/>
<path d="M2613 513 c-10 -3 -13 -59 -13 -228 0 -194 2 -224 16 -229 9 -3 20
-4 25 0 5 3 9 97 9 210 l0 204 60 0 c46 0 62 4 67 16 3 9 0 20 -8 25 -15 9
-135 11 -156 2z"/>
<path d="M1634 336 c-3 -8 -1 -23 5 -35 16 -29 14 -41 -7 -41 -24 0 -42 -19
-35 -36 7 -20 112 -19 119 1 9 21 -42 125 -61 125 -8 0 -18 -6 -21 -14z"/>
<path d="M3754 336 c-3 -8 -1 -23 5 -35 16 -29 14 -41 -7 -41 -24 0 -42 -19
-35 -36 7 -20 112 -19 119 1 9 21 -42 125 -61 125 -8 0 -18 -6 -21 -14z"/>
<path d="M624 297 c-3 -8 -4 -41 -2 -73 l3 -59 99 -3 c72 -2 102 1 107 10 16
26 -12 38 -87 38 -72 0 -74 1 -74 25 0 22 4 24 58 27 49 3 57 6 57 23 0 18 -8
20 -78 23 -59 2 -79 0 -83 -11z"/>
<path d="M160 166 c0 -62 4 -107 10 -111 21 -13 40 17 40 63 l0 45 38 -54 c41
-58 67 -70 66 -29 0 34 -112 190 -136 190 -16 0 -18 -10 -18 -104z"/>
<path d="M1572 153 c-18 -7 -44 -62 -38 -79 8 -20 34 -17 48 6 19 29 132 29
148 0 12 -23 38 -27 46 -7 6 17 -13 69 -29 79 -13 8 -155 9 -175 1z"/>
<path d="M3692 153 c-18 -7 -44 -62 -38 -79 8 -20 34 -17 48 6 19 29 132 29
148 0 12 -23 38 -27 46 -7 6 17 -13 69 -29 79 -13 8 -155 9 -175 1z"/>
</g>
</svg>
