<svg width="26" height="29" viewBox="0 0 26 29" fill="none" xmlns="http://www.w3.org/2000/svg">
<path d="M15.7715 15.005L14.1615 13.045C15.5848 12.9283 16.7282 12.5783 17.5915 11.995C18.4548 11.4117 19.0848 10.6883 19.4815 9.825C19.8782 8.96167 20.0765 8.06333 20.0765 7.13C20.0765 6.19667 19.8432 5.35667 19.3765 4.61C18.9098 3.84 18.1748 3.245 17.1715 2.825C16.1682 2.38167 14.8498 2.16 13.2165 2.16C12.3065 2.16 11.3498 2.28833 10.3465 2.545C9.3665 2.80166 8.44484 3.22167 7.5815 3.805C6.7415 4.38833 6.05317 5.15833 5.5165 6.115C4.97984 7.04833 4.7115 8.19167 4.7115 9.545C4.7115 10.1283 4.7815 10.665 4.9215 11.155C5.0615 11.645 5.29484 12.2167 5.6215 12.87C5.36484 13.08 5.07317 13.2433 4.7465 13.36C4.41984 13.4533 4.0815 13.5 3.7315 13.5C3.12484 13.5 2.5765 13.3367 2.0865 13.01C1.61984 12.6833 1.25817 12.2283 1.0015 11.645C0.744837 11.0383 0.616504 10.35 0.616504 9.58C0.616504 8.25 0.943171 7.025 1.5965 5.905C2.27317 4.76167 3.21817 3.75833 4.4315 2.895C5.64484 2.03167 7.04484 1.355 8.6315 0.865C10.2415 0.374999 11.9915 0.129999 13.8815 0.129999C16.2615 0.129999 18.2098 0.433332 19.7265 1.04C21.2665 1.64667 22.3982 2.45167 23.1215 3.455C23.8682 4.45833 24.2415 5.57833 24.2415 6.815C24.2415 7.88833 24.0315 8.88 23.6115 9.79C23.1915 10.7 22.5848 11.505 21.7915 12.205C21.0215 12.905 20.1232 13.5 19.0965 13.99C18.0698 14.4567 16.9615 14.795 15.7715 15.005ZM7.4765 24.49C7.10317 24.49 6.71817 24.4317 6.3215 24.315C5.92484 24.1983 5.60984 24.0117 5.3765 23.755C5.63317 23.545 5.8665 23.265 6.0765 22.915C6.30984 22.565 6.4965 22.1567 6.6365 21.69C6.79984 21.2233 6.93984 20.7217 7.0565 20.185L9.5765 7.34C9.73984 6.54667 9.93817 5.88166 10.1715 5.345C10.4282 4.80833 10.7782 4.41167 11.2215 4.155C11.6882 3.89833 12.2832 3.77 13.0065 3.77C13.6598 3.77 14.1732 3.89833 14.5465 4.155C14.9432 4.41167 15.1765 4.72667 15.2465 5.1C14.8732 5.28667 14.5698 5.555 14.3365 5.905C14.1265 6.23167 13.9748 6.605 13.8815 7.025C13.7882 7.42167 13.6832 7.85333 13.5665 8.32L10.8715 21.55C10.7548 22.2033 10.5332 22.7517 10.2065 23.195C9.87984 23.615 9.48317 23.93 9.0165 24.14C8.57317 24.3733 8.05984 24.49 7.4765 24.49ZM22.7015 28.095C21.9548 28.095 21.2782 27.9317 20.6715 27.605C20.0882 27.2783 19.5048 26.5783 18.9215 25.505C18.6882 25.0617 18.4315 24.455 18.1515 23.685C17.8715 22.915 17.5682 22.0517 17.2415 21.095C16.9382 20.1383 16.6115 19.17 16.2615 18.19C15.9115 17.21 15.5615 16.2767 15.2115 15.39C14.8615 14.5033 14.5115 13.7217 14.1615 13.045L17.5565 14.445C18.0698 14.795 18.5482 15.39 18.9915 16.23C19.4348 17.0467 19.8665 17.98 20.2865 19.03C20.7298 20.0567 21.1965 21.0717 21.6865 22.075C22.1765 23.0783 22.7248 23.965 23.3315 24.735C23.9382 25.505 24.6382 26.0183 25.4315 26.275C25.2448 26.835 24.9182 27.2783 24.4515 27.605C23.9848 27.9317 23.4015 28.095 22.7015 28.095Z" fill="white"/>
</svg>
